<svg width="37" height="34" viewBox="0 0 37 34" fill="none" xmlns="http://www.w3.org/2000/svg">
<rect x="1.54628" y="0.8578" width="33.973" height="31.9883" rx="7.7202" stroke="#009bcb" stroke-width="1.7156"/>
<path d="M29.4717 14.0137C29.6385 13.8771 29.8866 14.0049 29.8866 14.2208V23.2324C29.8866 24.4002 28.967 25.3476 27.8335 25.3476H10.0399C8.90644 25.3476 7.98682 24.4002 7.98682 23.2324V14.2252C7.98682 14.0049 8.23062 13.8815 8.40172 14.0181C9.35983 14.7848 10.6302 15.7587 14.993 19.0241C15.8956 19.7027 17.4183 21.1304 18.9367 21.1216C20.4637 21.1348 22.0164 19.6762 22.8847 19.0241C27.2475 15.7587 28.5136 14.7804 29.4717 14.0137ZM18.9367 19.7071C19.9291 19.7247 21.3577 18.4203 22.0763 17.8827C27.7522 13.6391 28.1843 13.2689 29.4931 12.2113C29.7412 12.013 29.8866 11.7046 29.8866 11.3785V10.5412C29.8866 9.37346 28.967 8.42603 27.8335 8.42603H10.0399C8.90644 8.42603 7.98682 9.37346 7.98682 10.5412V11.3785C7.98682 11.7046 8.13224 12.0086 8.38033 12.2113C9.68918 13.2645 10.1212 13.6391 15.7972 17.8827C16.5158 18.4203 17.9444 19.7247 18.9367 19.7071Z" fill="#009bcb"/>
</svg>
