<svg width="36" height="34" viewBox="0 0 36 34" fill="none" xmlns="http://www.w3.org/2000/svg">
<rect x="0.92323" y="0.8578" width="33.973" height="31.9883" rx="7.7202" stroke="#009bcb" stroke-width="1.7156"/>
<path d="M17.5065 11.7023C14.3993 11.7023 11.893 13.9617 11.893 16.7628C11.893 19.5638 14.3993 21.8232 17.5065 21.8232C20.6138 21.8232 23.1201 19.5638 23.1201 16.7628C23.1201 13.9617 20.6138 11.7023 17.5065 11.7023ZM17.5065 20.0527C15.4986 20.0527 13.857 18.5773 13.857 16.7628C13.857 14.9482 15.4937 13.4728 17.5065 13.4728C19.5194 13.4728 21.1561 14.9482 21.1561 16.7628C21.1561 18.5773 19.5145 20.0527 17.5065 20.0527ZM24.6591 11.4953C24.6591 12.1516 24.0728 12.6757 23.3498 12.6757C22.6218 12.6757 22.0404 12.1472 22.0404 11.4953C22.0404 10.8435 22.6267 10.315 23.3498 10.315C24.0728 10.315 24.6591 10.8435 24.6591 11.4953ZM28.3771 12.6933C28.294 11.1122 27.8934 9.71163 26.6085 8.55773C25.3284 7.40383 23.7748 7.04268 22.0209 6.96341C20.2132 6.87092 14.795 6.87092 12.9873 6.96341C11.2383 7.03828 9.68466 7.39943 8.39974 8.55333C7.11482 9.70723 6.71909 11.1078 6.63115 12.6889C6.52855 14.3184 6.52855 19.2027 6.63115 20.8323C6.7142 22.4134 7.11482 23.8139 8.39974 24.9678C9.68466 26.1217 11.2334 26.4829 12.9873 26.5621C14.795 26.6546 20.2132 26.6546 22.0209 26.5621C23.7748 26.4873 25.3284 26.1261 26.6085 24.9678C27.8885 23.8139 28.2891 22.4134 28.3771 20.8323C28.4797 19.2027 28.4797 14.3228 28.3771 12.6933ZM26.0417 22.5807C25.6606 23.444 24.9229 24.109 23.9605 24.4569C22.5192 24.9722 19.0993 24.8533 17.5065 24.8533C15.9138 24.8533 12.489 24.9678 11.0526 24.4569C10.0951 24.1134 9.35733 23.4484 8.97136 22.5807C8.39974 21.2815 8.53166 18.1985 8.53166 16.7628C8.53166 15.327 8.40463 12.2396 8.97136 10.9448C9.35244 10.0816 10.0902 9.41655 11.0526 9.06862C12.4939 8.55333 15.9138 8.67224 17.5065 8.67224C19.0993 8.67224 22.5241 8.55773 23.9605 9.06862C24.918 9.41215 25.6558 10.0772 26.0417 10.9448C26.6133 12.2441 26.4814 15.327 26.4814 16.7628C26.4814 18.1985 26.6133 21.2859 26.0417 22.5807Z" fill="#009bcb"/>
</svg>
