<svg width="51" height="15" viewBox="0 0 51 15" fill="none" xmlns="http://www.w3.org/2000/svg">
<g clip-path="url(#clip0)">
<path d="M19.1418 3.36469H16.3413C16.2486 3.36463 16.1589 3.39768 16.0884 3.4579C16.0179 3.51811 15.9712 3.60152 15.9568 3.6931L14.8241 10.8744C14.8189 10.9078 14.821 10.9418 14.8302 10.9743C14.8394 11.0067 14.8555 11.0368 14.8775 11.0624C14.8994 11.088 14.9267 11.1085 14.9573 11.1226C14.988 11.1367 15.0213 11.1439 15.055 11.1439H16.3921C16.4848 11.1439 16.5746 11.1108 16.6451 11.0505C16.7156 10.9902 16.7622 10.9067 16.7766 10.8151L17.0821 8.87815C17.0964 8.78656 17.143 8.70311 17.2134 8.64282C17.2838 8.58254 17.3735 8.54938 17.4662 8.54932H18.3527C20.1975 8.54932 21.2622 7.65662 21.5402 5.8876C21.6656 5.11365 21.5456 4.50554 21.1832 4.07967C20.7851 3.61202 20.0792 3.36469 19.1418 3.36469ZM19.4649 5.98751C19.3118 6.99242 18.544 6.99242 17.8015 6.99242H17.3789L17.6754 5.11569C17.6841 5.06079 17.7121 5.01078 17.7543 4.97467C17.7966 4.93857 17.8504 4.91873 17.906 4.91873H18.0997C18.6054 4.91873 19.0824 4.91873 19.329 5.20701C19.476 5.379 19.521 5.63453 19.4649 5.98751ZM27.5132 5.95516H26.1721C26.1165 5.95516 26.0627 5.975 26.0205 6.01111C25.9782 6.04722 25.9502 6.09722 25.9415 6.15213L25.8821 6.52723L25.7884 6.39128C25.498 5.9699 24.8506 5.82904 24.2044 5.82904C22.7225 5.82904 21.4567 6.95147 21.2102 8.52598C21.082 9.3114 21.2642 10.0624 21.7098 10.5862C22.1185 11.0677 22.7032 11.2684 23.399 11.2684C24.593 11.2684 25.2552 10.5006 25.2552 10.5006L25.1954 10.8732C25.1901 10.9065 25.192 10.9406 25.2012 10.9731C25.2103 11.0056 25.2263 11.0357 25.2482 11.0614C25.2701 11.0871 25.2972 11.1077 25.3279 11.1219C25.3585 11.1361 25.3918 11.1434 25.4256 11.1435H26.6336C26.7263 11.1435 26.8161 11.1104 26.8866 11.0501C26.9571 10.9898 27.0037 10.9063 27.0181 10.8147L27.7429 6.22461C27.7482 6.19137 27.7463 6.15736 27.7372 6.12495C27.7281 6.09253 27.7121 6.06247 27.6902 6.03685C27.6684 6.01123 27.6412 5.99066 27.6107 5.97655C27.5801 5.96245 27.5468 5.95515 27.5132 5.95516ZM25.6438 8.5653C25.5144 9.33146 24.9063 9.84579 24.1307 9.84579C23.7413 9.84579 23.4301 9.7209 23.2302 9.48421C23.032 9.24916 22.9567 8.9146 23.0198 8.54195C23.1406 7.78234 23.7589 7.25122 24.5226 7.25122C24.9034 7.25122 25.213 7.37775 25.417 7.61649C25.6213 7.85769 25.7024 8.19429 25.6438 8.5653ZM34.6556 5.95516H33.308C33.2444 5.95526 33.1818 5.97087 33.1257 6.00063C33.0695 6.03038 33.0215 6.07339 32.9857 6.12592L31.127 8.86382L30.3391 6.2328C30.3149 6.15256 30.2655 6.08223 30.1983 6.03223C30.131 5.98222 30.0495 5.9552 29.9656 5.95516H28.6413C28.6042 5.95506 28.5675 5.96385 28.5344 5.98078C28.5013 5.99771 28.4727 6.0223 28.4511 6.0525C28.4294 6.08271 28.4152 6.11765 28.4098 6.15442C28.4044 6.1912 28.4078 6.22874 28.4198 6.26392L29.9042 10.6202L28.5087 12.5902C28.4839 12.6252 28.4691 12.6663 28.4661 12.709C28.4631 12.7517 28.4719 12.7945 28.4916 12.8325C28.5113 12.8706 28.541 12.9025 28.5776 12.9248C28.6142 12.947 28.6562 12.9588 28.6991 12.9588H30.0451C30.1079 12.9589 30.1699 12.9437 30.2256 12.9146C30.2813 12.8855 30.3291 12.8433 30.3649 12.7917L34.8473 6.32166C34.8716 6.28666 34.8858 6.24567 34.8885 6.20314C34.8911 6.16062 34.8821 6.11818 34.8623 6.08042C34.8426 6.04266 34.8129 6.01102 34.7765 5.98895C34.74 5.96687 34.6982 5.95518 34.6556 5.95516Z" fill="#253B80"/>
<path d="M39.118 3.36479H36.317C36.2244 3.36483 36.1348 3.39793 36.0644 3.45813C35.9939 3.51834 35.9473 3.60169 35.9329 3.69321L34.8002 10.8746C34.795 10.9078 34.797 10.9418 34.8061 10.9742C34.8153 11.0067 34.8313 11.0367 34.8532 11.0623C34.8751 11.0879 34.9022 11.1085 34.9328 11.1226C34.9634 11.1367 34.9967 11.144 35.0304 11.144H36.4677C36.5325 11.1439 36.5952 11.1207 36.6445 11.0785C36.6937 11.0363 36.7263 10.9779 36.7363 10.9139L37.0578 8.87826C37.0721 8.78667 37.1187 8.70322 37.1891 8.64293C37.2596 8.58264 37.3492 8.54948 37.4419 8.54943H38.3281C40.1732 8.54943 41.2375 7.65673 41.516 5.8877C41.6417 5.11375 41.5209 4.50565 41.1585 4.07977C40.7609 3.61213 40.0553 3.36479 39.118 3.36479ZM39.4411 5.98762C39.2883 6.99252 38.5205 6.99252 37.7777 6.99252H37.3555L37.6524 5.1158C37.6609 5.06089 37.6888 5.01084 37.731 4.97471C37.7732 4.93859 37.827 4.91876 37.8825 4.91883H38.0762C38.5815 4.91883 39.059 4.91883 39.3055 5.20712C39.4525 5.3791 39.4972 5.63463 39.4411 5.98762ZM47.4889 5.95527H46.1486C46.093 5.95511 46.0392 5.97491 45.997 6.01105C45.9548 6.0472 45.9269 6.09729 45.9185 6.15223L45.8591 6.52733L45.7649 6.39138C45.4746 5.97001 44.8276 5.82914 44.1814 5.82914C42.6994 5.82914 41.4341 6.95157 41.1876 8.52609C41.0598 9.3115 41.2412 10.0625 41.6867 10.5863C42.0962 11.0678 42.6802 11.2685 43.3759 11.2685C44.57 11.2685 45.2322 10.5007 45.2322 10.5007L45.1724 10.8733C45.167 10.9067 45.169 10.9409 45.1782 10.9734C45.1873 11.0059 45.2035 11.0361 45.2254 11.0618C45.2474 11.0875 45.2747 11.1081 45.3054 11.1223C45.3361 11.1364 45.3695 11.1437 45.4033 11.1436H46.6109C46.7036 11.1435 46.7933 11.1104 46.8637 11.0501C46.9341 10.9898 46.9807 10.9064 46.9951 10.8148L47.7203 6.22472C47.7254 6.19137 47.7233 6.1573 47.714 6.12486C47.7047 6.09242 47.6886 6.06236 47.6666 6.03676C47.6446 6.01116 47.6173 5.99063 47.5867 5.97656C47.556 5.96249 47.5226 5.95523 47.4889 5.95527ZM45.6196 8.5654C45.491 9.33157 44.8821 9.8459 44.1065 9.8459C43.7179 9.8459 43.4058 9.721 43.206 9.48431C43.0078 9.24926 42.9333 8.9147 42.9955 8.54206C43.1171 7.78244 43.7346 7.25132 44.4983 7.25132C44.8792 7.25132 45.1888 7.37786 45.3927 7.6166C45.5979 7.85779 45.6789 8.1944 45.6196 8.5654ZM49.07 3.56176L47.9205 10.8746C47.9152 10.9078 47.9173 10.9418 47.9264 10.9742C47.9355 11.0067 47.9516 11.0367 47.9735 11.0623C47.9954 11.0879 48.0225 11.1085 48.0531 11.1226C48.0837 11.1367 48.117 11.144 48.1507 11.144H49.3063C49.4983 11.144 49.6613 11.0048 49.6908 10.8152L50.8243 3.63424C50.8295 3.60095 50.8275 3.56692 50.8184 3.53448C50.8092 3.50205 50.7932 3.47198 50.7713 3.44633C50.7494 3.42069 50.7223 3.40009 50.6917 3.38594C50.6611 3.3718 50.6278 3.36444 50.5941 3.36438H49.3001C49.2446 3.36458 49.1909 3.38455 49.1487 3.42071C49.1065 3.45688 49.0786 3.50688 49.07 3.56176Z" fill="#179BD7"/>
<path d="M3.19523 12.5398L3.40939 11.1794L2.93233 11.1684H0.654297L2.23741 1.13038C2.24213 1.09971 2.2577 1.07175 2.28131 1.05161C2.30491 1.03146 2.33496 1.02047 2.36599 1.02063H6.20708C7.48225 1.02063 8.36226 1.28599 8.82171 1.80973C9.03711 2.05543 9.17429 2.31218 9.24063 2.59474C9.31024 2.89121 9.31147 3.24543 9.24349 3.67745L9.23858 3.70898V3.9858L9.45398 4.10783C9.61841 4.19114 9.76622 4.30383 9.89009 4.44034C10.0744 4.65041 10.1935 4.9174 10.2439 5.23395C10.2959 5.5595 10.2787 5.94688 10.1935 6.38545C10.0952 6.88995 9.93636 7.32934 9.72179 7.68888C9.53246 8.01097 9.27791 8.28993 8.97446 8.50787C8.68945 8.71016 8.35079 8.86373 7.96791 8.962C7.59691 9.05865 7.1739 9.10738 6.70994 9.10738H6.41101C6.19725 9.10738 5.98963 9.18436 5.82665 9.32236C5.6639 9.46184 5.55594 9.65454 5.52199 9.86617L5.49946 9.98861L5.12109 12.3862L5.10389 12.4743C5.09939 12.5021 5.09161 12.516 5.08014 12.5254C5.06903 12.5345 5.05518 12.5396 5.04083 12.5398H3.19523Z" fill="#253B80"/>
<path d="M9.6569 3.74078C9.64544 3.81408 9.63233 3.88902 9.61759 3.96601C9.11104 6.56672 7.37805 7.46516 5.16472 7.46516H4.03779C3.76711 7.46516 3.53902 7.66172 3.49684 7.92871L2.91986 11.588L2.75647 12.6252C2.74996 12.6664 2.75245 12.7084 2.76375 12.7485C2.77506 12.7886 2.79492 12.8258 2.82197 12.8575C2.84902 12.8891 2.88261 12.9146 2.92044 12.932C2.95826 12.9495 2.99942 12.9585 3.04107 12.9586H5.03983C5.27651 12.9586 5.47758 12.7866 5.51484 12.5532L5.5345 12.4516L5.91083 10.0634L5.93499 9.93238C5.97184 9.69815 6.17331 9.52616 6.41 9.52616H6.70893C8.64545 9.52616 10.1614 8.73992 10.6045 6.46476C10.7896 5.51432 10.6937 4.72071 10.204 4.16257C10.0488 3.98991 9.86337 3.84698 9.6569 3.74078Z" fill="#179BD7"/>
<path d="M9.12822 3.52919C8.96648 3.4824 8.80194 3.44588 8.6356 3.41986C8.3069 3.36934 7.9747 3.3451 7.64216 3.34737H4.63153C4.51696 3.34729 4.40613 3.38819 4.31909 3.46269C4.23204 3.5372 4.17452 3.64038 4.15693 3.7536L3.51647 7.81007L3.49805 7.92842C3.518 7.79928 3.58351 7.68156 3.68273 7.59653C3.78195 7.51151 3.90833 7.4648 4.03899 7.46487H5.16593C7.37926 7.46487 9.11225 6.56602 9.6188 3.96572C9.63395 3.88873 9.64664 3.81379 9.65811 3.74049C9.52444 3.6704 9.38514 3.61163 9.24165 3.56482C9.20403 3.55234 9.16622 3.54046 9.12822 3.52919Z" fill="#222D65"/>
<path d="M4.15708 3.75379C4.17453 3.64054 4.23202 3.53731 4.31911 3.46284C4.40619 3.38838 4.5171 3.34762 4.63169 3.34798H7.64231C7.99898 3.34798 8.3319 3.37132 8.63575 3.42046C8.84136 3.45277 9.04413 3.50111 9.24221 3.56501C9.39168 3.61456 9.5305 3.67312 9.65867 3.74069C9.80937 2.7796 9.65744 2.12522 9.13779 1.53268C8.56491 0.880351 7.53093 0.601074 6.20784 0.601074H2.36676C2.09649 0.601074 1.86595 0.797633 1.82418 1.06503L0.224273 11.2062C0.216821 11.2533 0.219656 11.3014 0.232584 11.3473C0.245511 11.3932 0.268224 11.4358 0.299161 11.472C0.330097 11.5083 0.368522 11.5374 0.411793 11.5574C0.455064 11.5774 0.502154 11.5878 0.549823 11.5879H2.92122L3.51663 7.81027L4.15708 3.75379Z" fill="#253B80"/>
</g>
<defs>
<clipPath id="clip0">
<rect width="50.7776" height="13.5134" fill="white" transform="translate(0.220215 0.601074)"/>
</clipPath>
</defs>
</svg>
