<svg width="37" height="35" viewBox="0 0 37 35" fill="none" xmlns="http://www.w3.org/2000/svg">
<rect x="1.23475" y="1.62391" width="33.973" height="31.9883" rx="7.7202" stroke="#009bcb" stroke-width="1.7156"/>
<path d="M28.2316 12.8143C28.2473 13.0405 28.2473 13.2668 28.2473 13.493C28.2473 20.3923 23.1502 28.342 13.8342 28.342C10.9641 28.342 8.29792 27.4856 6.05518 25.9991C6.46296 26.0476 6.85501 26.0637 7.27848 26.0637C9.64665 26.0637 11.8267 25.2397 13.5675 23.834C11.3405 23.7855 9.47416 22.2828 8.83112 20.2146C9.14482 20.2631 9.45847 20.2954 9.78785 20.2954C10.2427 20.2954 10.6975 20.2307 11.1209 20.1177C8.79979 19.6329 7.05888 17.5324 7.05888 14.9957V14.931C7.73324 15.3188 8.51748 15.5612 9.34864 15.5935C7.98418 14.6563 7.09025 13.0567 7.09025 11.247C7.09025 10.2776 7.34114 9.3889 7.78031 8.61332C10.274 11.7802 14.0224 13.8484 18.2255 14.0746C18.1471 13.6869 18.1 13.283 18.1 12.879C18.1 10.0029 20.3584 7.66003 23.1658 7.66003C24.6243 7.66003 25.9417 8.29019 26.8671 9.30813C28.0119 9.08193 29.1098 8.64565 30.0822 8.04782C29.7057 9.25968 28.9059 10.2776 27.8551 10.9239C28.8746 10.8108 29.8626 10.5199 30.7722 10.116C30.0823 11.1501 29.2196 12.071 28.2316 12.8143Z" fill="#009bcb"/>
</svg>
