<svg width="42" height="15" viewBox="0 0 42 15" fill="none" xmlns="http://www.w3.org/2000/svg">
<g clip-path="url(#clip0)">
<path d="M18.0735 13.9195H14.6948L16.8081 0.838196H20.1865L18.0735 13.9195Z" fill="#00579F"/>
<path d="M30.321 1.158C29.6546 0.893316 28.5976 0.601074 27.2907 0.601074C23.9541 0.601074 21.6046 2.38227 21.5902 4.92884C21.5625 6.8077 23.2724 7.85126 24.5513 8.47773C25.8584 9.11789 26.3028 9.53572 26.3028 10.1063C26.2895 10.9827 25.2465 11.3866 24.2738 11.3866C22.9249 11.3866 22.2021 11.1784 21.1037 10.6908L20.6588 10.4818L20.186 13.4183C20.9785 13.7797 22.4384 14.1004 23.9541 14.1145C27.4993 14.1145 29.8072 12.3608 29.8346 9.64707C29.8481 8.15793 28.9452 7.01689 26.9986 6.08449C25.8169 5.48595 25.0932 5.08236 25.0932 4.46995C25.107 3.91321 25.7053 3.34297 27.0392 3.34297C28.1376 3.31504 28.9446 3.57935 29.556 3.84385L29.8616 3.98275L30.321 1.158Z" fill="#00579F"/>
<path d="M34.8123 9.28527C35.0905 8.53377 36.1612 5.62523 36.1612 5.62523C36.1471 5.65315 36.4389 4.85985 36.6057 4.37284L36.8418 5.50001C36.8418 5.50001 37.4816 8.63124 37.6206 9.28527C37.0925 9.28527 35.4796 9.28527 34.8123 9.28527ZM38.9828 0.838196H36.3694C35.5635 0.838196 34.9512 1.07458 34.6035 1.92356L29.585 13.9193H33.1301C33.1301 13.9193 33.7137 12.3048 33.8392 11.9571C34.2281 11.9571 37.6767 11.9571 38.177 11.9571C38.274 12.4163 38.5802 13.9193 38.5802 13.9193H41.7085L38.9828 0.838196Z" fill="#00579F"/>
<path d="M11.8728 0.838196L8.56402 9.75841L8.20245 7.94929C7.59072 5.86179 5.67221 3.59378 3.53125 2.46606L6.562 13.9057H10.1348L15.4455 0.838196H11.8728Z" fill="#00579F"/>
<path d="M5.49152 0.838196H0.0556115L0 1.10251C4.24035 2.18806 7.04864 4.80473 8.20245 7.94984L7.02075 1.9378C6.8262 1.10232 6.22833 0.865755 5.49152 0.838196Z" fill="#FAA61A"/>
</g>
<defs>
<clipPath id="clip0">
<rect width="41.708" height="13.5134" fill="white" transform="translate(0 0.601074)"/>
</clipPath>
</defs>
</svg>
