<svg width="32" height="33" viewBox="0 0 32 33" fill="none" xmlns="http://www.w3.org/2000/svg">
<path d="M16 18.8597C20.9688 18.8597 25 14.8285 25 9.85974C25 4.89099 20.9688 0.859741 16 0.859741C11.0312 0.859741 7 4.89099 7 9.85974C7 14.8285 11.0312 18.8597 16 18.8597ZM24 20.8597H20.5562C19.1687 21.4972 17.625 21.8597 16 21.8597C14.375 21.8597 12.8375 21.4972 11.4438 20.8597H8C3.58125 20.8597 0 24.441 0 28.8597V29.8597C0 31.516 1.34375 32.8597 3 32.8597H29C30.6562 32.8597 32 31.516 32 29.8597V28.8597C32 24.441 28.4188 20.8597 24 20.8597Z" fill="black"/>
</svg>
